# xmcd CD database file
#
# Track frame offsets:
#	151
#	21764
#	46160
#	60881
#	90821
#	119131
#	136863
#	165031
#	189041
#
# Disc length: 2836 seconds
#
# Revision: 0
# Processed by: cddbd v1.5.2PL0 Copyright (c) Steve Scherf et al.
# Submitted via: CDex 1.70beta2
#
DISCID=590b1209
DTITLE=Stensen meets Öhrn - Live session at the 'Enskede Art Gallery'
DYEAR=2007
DGENRE=Jazz
TTITLE0=Jersey bounce
TTITLE1=They can't take that away from me
TTITLE2=Lush life
TTITLE3=Honeysucie rose
TTITLE4=Route 66
TTITLE5=Walz for Debby ('Monicas vals')
TTITLE6=Do nothing till you hear from me
TTITLE7=Spring can really hang you up the most
TTITLE8=Twisted
EXTD=YEAR: 2007
EXTT0=
EXTT1=
EXTT2=
EXTT3=
EXTT4=
EXTT5=
EXTT6=
EXTT7=
EXTT8=
PLAYORDER=
